<svg id="svg" version="1.1" xmlns="http://www.w3.org/2000/svg" xmlns:xlink="http://www.w3.org/1999/xlink" width="400" height="501.3333333333333" viewBox="0, 0, 400,501.3333333333333"><g id="svgg"><path id="path0" d="M189.179 9.348 C 91.682 16.091,16.300 92.581,10.320 190.833 C 9.680 201.359,10.069 302.477,10.776 309.167 C 22.299 418.209,95.948 490.608,197.333 492.558 C 299.801 494.529,380.718 420.267,391.529 314.333 C 393.126 298.683,392.988 198.246,391.347 182.295 C 380.746 79.233,290.834 2.317,189.179 9.348 M215.667 19.019 C 302.367 25.204,374.359 96.854,381.657 184.220 C 382.740 197.193,383.005 297.815,381.993 311.833 C 375.077 407.569,299.713 480.603,205.167 483.192 C 106.949 485.882,26.059 410.802,19.651 311.000 C 19.097 302.372,19.030 197.979,19.574 190.767 C 23.162 143.194,40.720 103.962,72.817 71.804 C 105.853 38.704,145.453 21.371,193.496 18.983 C 197.528 18.782,200.903 18.537,200.996 18.438 C 201.190 18.233,208.974 18.541,215.667 19.019 M150.452 31.364 C 149.201 31.726,149.129 31.890,148.496 35.791 C 147.495 41.964,147.997 48.401,149.572 49.583 C 150.697 50.428,154.551 49.537,155.383 48.240 C 155.796 47.596,156.695 48.272,156.495 49.076 C 156.391 49.493,156.190 52.758,156.047 56.333 C 155.753 63.699,155.613 64.180,153.172 66.180 C 150.780 68.140,151.248 69.333,154.409 69.333 L 156.352 69.333 157.741 72.201 C 159.661 76.167,161.115 76.688,166.908 75.484 C 167.777 75.303,168.182 75.427,169.017 76.130 C 170.810 77.638,172.785 77.062,173.360 74.862 C 173.556 74.113,174.155 72.207,174.691 70.627 C 175.992 66.797,175.966 65.977,174.510 64.782 C 173.277 63.770,172.668 61.523,172.674 58.000 C 172.678 55.985,172.714 55.952,176.294 54.672 C 179.311 53.593,179.444 53.502,180.063 52.101 C 181.755 48.277,178.638 47.407,172.968 50.120 C 170.876 51.122,170.372 50.780,169.503 47.770 C 168.527 44.394,167.355 43.511,164.202 43.777 L 161.706 43.988 162.270 42.244 C 162.628 41.135,162.833 39.407,162.833 37.500 L 162.833 34.500 161.879 34.391 C 160.683 34.254,159.590 35.247,157.172 38.667 C 154.167 42.916,152.343 43.727,152.672 40.667 C 152.970 37.893,152.795 32.518,152.381 31.750 C 151.937 30.926,151.952 30.929,150.452 31.364 M246.502 33.392 C 245.807 34.218,245.666 34.639,245.860 35.308 C 246.925 38.983,244.297 47.734,241.833 48.713 C 240.544 49.226,234.994 49.720,231.219 49.658 C 227.762 49.601,226.667 50.215,226.667 52.209 C 226.667 55.227,227.726 55.833,233.000 55.833 C 237.617 55.833,238.233 56.194,236.679 57.986 C 236.303 58.419,235.509 59.420,234.915 60.210 C 234.320 61.000,233.683 61.653,233.500 61.662 C 233.317 61.670,231.817 62.965,230.167 64.539 C 228.517 66.113,226.567 67.708,225.835 68.082 C 219.932 71.102,219.363 72.333,223.871 72.333 C 225.957 72.333,226.416 72.221,227.273 71.500 C 227.817 71.042,228.394 70.667,228.553 70.667 C 229.039 70.667,235.244 64.453,236.197 63.013 C 237.647 60.823,239.280 61.578,239.564 64.570 C 239.647 65.448,239.848 66.467,240.010 66.833 C 240.173 67.200,240.476 68.175,240.684 69.000 C 242.490 76.147,243.873 78.301,248.667 81.431 C 251.170 83.066,252.060 83.240,253.320 82.343 C 255.358 80.892,255.305 80.720,251.682 77.064 C 247.864 73.212,247.075 71.845,245.658 66.635 C 245.100 64.582,244.322 62.156,243.930 61.244 C 243.117 59.355,243.383 57.469,244.728 55.581 C 245.487 54.514,245.359 54.524,249.608 55.199 C 251.863 55.557,254.535 54.790,255.007 53.650 C 255.537 52.369,255.309 51.199,254.500 51.053 C 254.133 50.987,253.533 50.668,253.167 50.343 C 252.767 49.989,251.713 49.676,250.536 49.562 C 247.746 49.292,247.685 49.136,249.115 45.926 C 250.465 42.895,251.667 38.364,251.667 36.306 C 251.667 32.807,248.498 31.019,246.502 33.392 M138.417 44.235 C 137.406 44.430,137.323 47.172,138.296 48.217 C 139.174 49.159,141.696 49.823,142.891 49.427 C 144.564 48.873,144.212 45.000,142.489 45.000 C 142.265 45.000,141.895 44.775,141.667 44.500 C 141.271 44.023,140.040 43.923,138.417 44.235 M167.137 49.692 C 168.872 51.754,167.709 55.698,165.745 54.411 C 164.739 53.752,162.754 53.012,161.972 53.005 C 160.962 52.995,161.456 51.955,163.249 50.316 C 165.352 48.394,165.962 48.296,167.137 49.692 M142.465 53.985 C 140.878 54.643,140.818 63.035,142.366 67.913 C 145.547 77.938,149.895 83.091,152.311 79.699 C 153.304 78.303,153.319 73.726,152.333 72.833 C 151.967 72.502,151.667 72.027,151.667 71.779 C 151.667 71.414,151.541 71.406,151.014 71.735 C 149.534 72.660,147.866 69.890,147.161 65.333 C 145.413 54.038,144.963 52.949,142.465 53.985 M162.641 57.528 C 161.780 58.444,160.503 58.590,160.202 57.806 C 159.794 56.743,159.992 56.333,160.917 56.328 C 161.421 56.325,162.056 56.182,162.329 56.010 C 163.246 55.430,163.491 56.622,162.641 57.528 M169.961 62.167 C 170.953 67.613,170.430 70.103,168.229 70.416 C 167.645 70.499,166.466 70.768,165.609 71.013 C 163.415 71.640,162.186 69.957,161.053 64.776 C 160.432 61.933,162.828 61.669,164.097 64.441 C 164.921 66.241,165.002 66.301,167.920 67.256 C 169.732 67.849,170.050 66.675,168.377 65.568 C 166.049 64.028,165.314 61.240,166.917 60.030 C 168.724 58.665,169.411 59.147,169.961 62.167 M320.062 78.006 C 318.537 79.103,316.911 80.450,316.449 81.000 C 315.986 81.550,315.321 82.000,314.970 82.000 C 314.206 82.000,314.202 82.041,314.816 83.511 C 315.760 85.770,320.693 83.993,322.718 80.663 C 323.027 80.155,323.441 79.639,323.640 79.517 C 323.838 79.394,324.000 78.553,324.000 77.647 C 324.000 75.451,323.557 75.491,320.062 78.006 M190.333 78.694 C 122.698 83.838,73.077 132.422,66.269 200.167 C 65.514 207.674,65.649 296.553,66.425 303.333 C 72.376 355.322,101.060 397.790,144.638 419.131 C 229.323 460.603,326.174 401.258,336.069 301.833 C 336.830 294.187,336.680 205.466,335.894 198.333 C 327.693 123.897,265.721 72.962,190.333 78.694 M306.000 81.002 C 304.992 81.345,303.342 81.789,302.333 81.988 C 299.706 82.507,299.716 82.493,299.915 85.250 L 300.090 87.667 301.816 87.667 C 302.859 87.667,304.087 87.403,304.921 87.000 C 307.405 85.800,308.490 86.048,310.712 88.326 C 311.782 89.423,313.069 90.410,313.578 90.523 C 314.085 90.637,314.973 90.940,315.550 91.198 C 316.128 91.456,316.960 91.667,317.399 91.667 C 317.838 91.667,319.016 92.188,320.015 92.825 C 321.015 93.462,321.958 93.987,322.110 93.991 C 322.262 93.996,323.237 94.721,324.276 95.603 C 325.316 96.485,326.579 97.382,327.083 97.596 C 328.561 98.224,328.239 99.229,326.158 100.484 L 324.888 101.251 325.735 102.099 C 326.455 102.818,329.628 104.667,330.144 104.667 C 331.174 104.667,332.572 102.550,332.421 101.217 C 332.331 100.413,332.432 99.439,332.648 99.035 C 333.413 97.605,329.830 93.261,326.505 91.589 C 325.402 91.034,324.007 90.149,323.405 89.623 C 322.803 89.097,321.930 88.667,321.466 88.667 C 321.002 88.667,320.131 88.292,319.530 87.833 C 318.833 87.302,318.003 87.000,317.241 87.000 C 316.285 87.000,315.898 86.793,315.311 85.969 C 314.655 85.047,314.433 84.953,313.205 85.079 C 311.658 85.238,309.373 83.886,310.474 83.464 C 311.104 83.222,311.191 81.325,310.600 80.733 C 310.031 80.164,308.134 80.275,306.000 81.002 M330.595 81.398 C 325.960 82.630,325.988 88.347,330.638 90.404 C 334.692 92.198,339.586 91.822,341.145 89.597 C 342.381 87.832,340.652 85.755,338.268 86.142 C 334.213 86.800,332.149 86.701,331.312 85.810 C 330.463 84.906,330.759 84.350,332.095 84.338 C 333.311 84.328,334.333 83.319,334.333 82.128 C 334.333 80.866,333.331 80.671,330.595 81.398 M74.212 82.691 C 72.720 83.864,73.959 86.321,79.969 94.106 C 84.922 100.523,92.333 111.081,92.333 111.721 C 92.333 113.149,90.209 116.609,87.268 119.970 C 85.798 121.650,84.744 123.458,84.188 125.250 C 83.961 125.981,84.017 126.000,86.410 126.000 C 89.420 126.000,89.980 125.522,93.933 119.579 C 97.561 114.123,100.534 110.674,104.915 106.834 C 108.784 103.444,109.801 102.785,112.608 101.853 C 115.248 100.976,116.667 99.569,116.667 97.828 C 116.667 94.646,112.378 94.456,109.000 97.488 C 106.658 99.591,98.183 105.667,97.593 105.667 C 96.886 105.667,95.405 104.263,92.417 100.762 C 89.897 97.809,90.012 96.764,93.223 93.460 C 94.634 92.008,94.974 91.230,94.363 90.852 C 94.185 90.742,94.217 90.246,94.439 89.657 C 95.835 85.958,91.262 86.955,89.133 90.813 C 87.170 94.371,86.040 94.381,84.261 90.856 C 80.000 82.415,77.325 80.242,74.212 82.691 M294.067 92.400 C 292.992 93.475,294.112 95.724,296.179 96.638 C 298.190 97.527,302.409 101.051,303.182 102.486 C 304.689 105.284,297.835 107.826,294.063 105.868 C 292.081 104.840,289.270 107.803,290.788 109.321 C 291.775 110.309,297.398 109.715,301.851 108.153 C 304.225 107.321,306.528 106.683,306.970 106.737 C 308.040 106.866,310.313 110.110,310.325 111.525 C 310.340 113.382,314.148 115.357,315.029 113.965 C 316.276 111.995,314.900 108.862,310.851 104.453 C 308.621 102.025,309.852 100.851,314.689 100.794 C 318.389 100.750,319.010 100.473,318.981 98.876 C 318.942 96.732,318.265 95.595,316.333 94.436 C 313.402 92.677,311.447 93.175,312.277 95.470 C 312.935 97.291,311.839 98.755,310.034 98.467 C 308.952 98.294,308.627 98.407,307.650 99.300 C 305.849 100.944,305.068 100.489,297.617 93.462 C 296.044 91.978,294.847 91.620,294.067 92.400 M153.500 115.553 C 175.791 124.447,191.930 135.050,196.803 144.004 L 197.710 145.670 194.779 148.846 C 176.404 168.749,171.560 190.386,174.671 238.667 C 175.971 258.838,175.737 280.941,174.168 286.225 C 173.127 289.730,171.884 290.051,163.461 288.995 C 156.826 288.163,146.912 288.205,141.417 289.089 L 138.667 289.531 138.667 199.780 L 138.667 110.028 142.917 111.527 C 145.254 112.352,150.017 114.163,153.500 115.553 M277.000 144.282 L 277.000 173.897 270.583 177.543 L 264.167 181.188 263.984 235.844 C 263.788 294.232,263.837 292.456,262.130 303.500 C 258.574 326.504,247.995 341.141,227.333 351.643 C 199.236 365.924,165.806 357.332,151.117 332.056 C 145.078 321.664,144.522 320.831,141.846 318.158 C 140.019 316.335,138.401 315.085,136.763 314.230 C 134.423 313.011,134.368 312.953,134.700 312.072 C 137.206 305.423,144.901 301.295,154.759 301.311 C 159.401 301.318,160.386 301.473,166.833 303.215 C 177.599 306.123,184.198 304.550,185.964 298.655 C 187.752 292.686,187.965 269.380,186.482 241.833 C 184.354 202.297,185.968 187.262,194.176 170.167 C 208.521 140.286,243.597 116.630,276.417 114.701 C 276.968 114.669,277.000 116.286,277.000 144.282 M124.764 236.167 C 124.909 288.345,124.929 289.228,126.176 298.167 C 133.403 349.975,167.100 379.364,212.167 373.164 C 248.145 368.215,272.027 338.497,276.322 293.333 C 276.523 291.225,276.777 288.900,276.887 288.167 C 276.997 287.433,277.180 264.648,277.293 237.533 L 277.500 188.232 296.167 177.622 L 314.833 167.012 314.931 225.089 C 315.033 285.521,314.907 293.164,313.656 302.922 C 305.649 365.377,259.812 408.326,201.167 408.326 C 144.540 408.326,99.428 368.028,89.517 308.591 C 87.493 296.455,87.561 298.994,87.424 229.411 L 87.299 165.655 105.960 175.078 L 124.620 184.500 124.764 236.167 M341.819 295.105 C 341.712 295.530,341.672 296.593,341.729 297.468 L 341.833 299.059 348.000 302.302 C 351.392 304.085,354.879 305.834,355.749 306.189 C 357.314 306.827,357.796 307.333,356.838 307.333 C 356.406 307.333,348.048 310.258,342.635 312.304 C 340.562 313.088,340.000 313.870,340.000 315.975 C 340.000 318.611,339.134 318.800,354.906 312.717 L 362.585 309.755 369.209 310.203 C 376.921 310.725,376.763 310.779,376.597 307.667 L 376.500 305.833 369.783 305.394 L 363.067 304.954 352.872 299.644 C 341.756 293.853,342.098 293.994,341.819 295.105 M49.468 299.254 C 45.924 300.524,44.840 301.916,41.625 309.325 C 40.180 312.657,38.186 314.333,35.670 314.333 C 30.603 314.333,28.531 308.797,31.327 302.730 C 32.657 299.846,32.537 299.333,30.532 299.333 C 28.125 299.333,27.551 299.718,26.517 302.023 C 23.054 309.738,27.382 318.554,34.970 319.242 C 40.413 319.735,43.137 317.725,45.816 311.237 C 48.347 305.108,50.601 303.085,53.906 303.975 C 57.210 304.864,58.425 309.396,56.400 313.280 C 55.172 315.635,55.335 316.000,57.615 316.000 C 60.504 316.000,61.686 314.304,61.931 309.803 C 62.368 301.791,56.425 296.760,49.468 299.254 M149.090 307.494 C 145.921 308.872,145.861 313.732,148.994 315.330 C 152.268 317.000,155.667 315.095,155.667 311.590 C 155.667 308.118,152.373 306.067,149.090 307.494 M340.471 319.892 C 339.850 320.017,339.514 321.149,337.340 330.433 C 334.210 343.799,334.247 343.476,335.789 343.985 C 338.276 344.806,338.372 344.693,339.658 339.418 C 340.579 335.644,340.921 334.700,341.325 334.818 C 342.675 335.214,369.987 340.333,370.747 340.333 C 371.882 340.333,372.878 336.889,371.941 336.204 C 371.656 335.996,364.840 334.569,356.795 333.034 C 348.749 331.498,342.070 330.189,341.952 330.123 C 341.834 330.058,342.169 328.316,342.695 326.252 C 343.650 322.509,343.890 320.504,343.417 320.226 C 342.952 319.952,341.172 319.751,340.471 319.892 M45.265 325.501 C 27.014 329.068,28.525 328.585,28.784 330.775 C 29.114 333.564,28.866 333.535,37.460 331.809 C 41.640 330.969,45.128 330.351,45.212 330.434 C 45.372 330.594,48.666 344.129,48.561 344.192 C 48.527 344.212,45.275 344.861,41.333 345.634 C 32.184 347.427,33.000 347.130,33.000 348.667 C 33.000 352.348,31.488 352.362,51.491 348.500 C 60.513 346.758,68.013 345.333,68.160 345.333 C 68.522 345.333,68.137 341.337,67.736 340.936 C 67.532 340.732,64.873 341.124,60.369 342.024 C 56.493 342.799,53.242 343.353,53.145 343.256 C 52.986 343.097,50.196 331.721,49.941 330.189 C 49.843 329.605,50.481 329.415,56.772 328.151 C 64.797 326.538,64.523 326.687,64.007 324.202 L 63.619 322.333 62.393 322.363 C 61.719 322.379,54.011 323.791,45.265 325.501 M332.819 347.141 C 332.502 347.626,332.332 348.459,332.395 349.225 L 332.500 350.500 348.000 355.727 C 366.498 361.965,366.334 361.943,366.333 358.176 L 366.333 356.833 350.359 351.583 C 332.783 345.807,333.564 346.004,332.819 347.141 M51.610 358.342 C 34.174 359.027,35.230 358.771,36.679 361.965 L 37.344 363.430 42.289 363.255 L 47.234 363.079 49.842 368.956 C 51.276 372.189,52.493 374.922,52.546 375.031 C 52.598 375.140,51.072 376.488,49.154 378.026 C 45.362 381.068,45.291 381.209,46.407 383.507 C 47.597 385.956,47.486 386.024,62.214 373.858 C 77.196 361.481,76.420 362.413,74.491 359.121 L 73.639 357.667 70.069 357.712 C 68.106 357.737,59.800 358.021,51.610 358.342 M330.459 358.995 C 324.499 361.402,322.090 372.238,326.728 375.776 C 331.443 379.372,335.775 378.971,341.968 374.367 C 347.668 370.129,349.006 369.670,351.869 370.970 C 356.599 373.118,355.037 379.415,348.750 383.539 C 346.163 385.237,346.732 386.646,350.120 386.927 L 351.897 387.074 354.111 385.002 C 360.677 378.860,360.404 369.970,353.541 366.418 C 349.779 364.470,346.166 365.336,340.667 369.500 C 336.483 372.668,334.776 373.470,332.711 373.237 C 329.611 372.888,328.060 369.581,329.537 366.468 C 330.056 365.376,333.748 361.667,334.317 361.667 C 334.714 361.667,335.012 360.753,334.797 360.193 C 334.420 359.209,331.752 358.473,330.459 358.995 M69.150 361.959 C 68.127 362.904,56.231 372.340,56.161 372.262 C 55.939 372.010,51.998 362.557,52.081 362.474 C 52.195 362.361,63.435 361.790,66.983 361.717 C 68.423 361.688,69.334 361.790,69.150 361.959 M66.583 383.684 C 51.319 392.842,51.868 392.383,53.428 394.698 C 53.847 395.320,54.415 395.872,54.689 395.925 C 55.131 396.010,74.812 384.366,77.693 382.315 L 78.826 381.508 78.041 382.837 C 72.472 392.260,64.209 406.923,63.960 407.824 C 63.397 409.864,65.320 412.537,67.130 412.229 C 68.564 411.986,95.807 396.205,95.940 395.541 C 96.087 394.811,94.678 392.382,93.980 392.160 C 93.474 392.000,76.804 401.706,72.496 404.670 C 70.501 406.042,70.481 405.974,72.138 403.413 C 73.639 401.092,83.475 384.335,84.452 382.433 C 85.761 379.886,83.483 375.332,80.901 375.334 C 80.680 375.334,74.237 379.091,66.583 383.684 M320.167 380.248 C 316.918 381.414,308.447 390.461,308.732 392.460 C 308.852 393.298,335.376 411.278,336.544 411.312 C 336.977 411.325,337.595 410.887,338.127 410.189 C 339.738 408.077,339.615 407.917,333.003 403.541 C 326.284 399.095,326.516 399.501,329.243 396.950 C 332.156 394.225,333.131 394.167,341.510 396.217 C 347.200 397.608,347.932 397.569,348.966 395.817 C 349.819 394.370,349.862 393.434,349.083 393.211 C 342.714 391.390,335.433 390.142,333.716 390.578 L 332.407 390.910 332.407 388.500 C 332.407 382.431,326.040 378.139,320.167 380.248 M324.229 384.982 C 328.705 387.014,328.691 390.718,324.189 396.145 L 323.377 397.123 318.862 394.145 C 316.379 392.507,314.344 391.055,314.340 390.920 C 314.333 390.675,316.040 388.347,317.507 386.600 C 319.371 384.379,321.678 383.823,324.229 384.982 M296.960 402.571 C 290.766 408.527,290.397 408.975,290.866 409.977 C 291.118 410.517,304.542 422.604,312.425 429.389 C 315.803 432.297,315.492 432.413,322.816 425.476 C 329.493 419.152,329.498 419.145,327.974 417.863 C 326.182 416.355,325.718 416.578,320.604 421.417 C 318.036 423.846,315.814 425.833,315.666 425.833 C 315.324 425.833,307.333 418.690,307.333 418.384 C 307.333 418.259,309.133 416.361,311.333 414.167 C 315.759 409.753,315.760 409.751,314.308 408.530 C 312.787 407.250,312.628 407.330,308.084 411.654 L 303.894 415.642 301.556 413.571 C 300.270 412.432,298.576 410.900,297.791 410.167 L 296.364 408.833 301.170 404.333 C 306.260 399.568,306.600 399.014,305.229 397.725 C 303.700 396.289,303.169 396.601,296.960 402.571 M94.385 403.488 C 89.184 404.746,82.927 409.755,80.630 414.500 C 76.814 422.380,82.434 432.817,92.233 436.050 C 95.576 437.152,95.441 437.226,102.370 430.528 C 107.898 425.183,107.938 425.959,101.867 420.714 C 97.195 416.678,96.894 416.545,95.562 417.935 C 94.199 419.358,94.438 419.924,97.546 422.639 L 100.376 425.112 97.111 428.389 C 93.429 432.085,93.813 431.895,91.863 430.979 C 82.338 426.502,82.459 415.917,92.108 409.632 C 99.697 404.690,109.547 408.680,112.343 417.831 C 113.285 420.912,116.000 419.832,116.000 416.376 C 116.000 408.704,103.538 401.273,94.385 403.488 M287.391 412.239 C 286.598 412.700,285.880 413.258,285.796 413.477 C 285.669 413.809,288.789 423.713,293.644 438.386 L 294.599 441.271 287.216 436.266 C 267.354 422.800,268.947 423.633,266.692 425.530 C 264.671 427.231,264.420 427.010,280.085 437.316 C 296.125 447.868,295.678 447.660,298.164 445.752 C 300.423 444.020,300.619 445.192,295.158 427.762 C 289.406 409.403,290.051 410.692,287.391 412.239 M112.843 431.083 C 102.574 446.060,102.403 446.512,106.711 447.211 L 107.907 447.406 111.834 441.619 C 113.993 438.437,115.873 435.707,116.011 435.552 C 116.249 435.285,129.333 442.597,129.333 442.997 C 129.333 443.101,127.531 445.807,125.327 449.010 C 121.127 455.116,120.916 455.666,122.368 456.745 C 124.833 458.578,124.456 458.973,134.455 444.092 L 143.465 430.683 142.721 429.891 C 142.036 429.162,139.477 428.045,139.219 428.363 C 139.157 428.438,137.502 430.857,135.541 433.738 C 133.579 436.619,131.868 439.041,131.737 439.121 C 131.425 439.311,118.667 431.944,118.667 431.574 C 118.667 431.416,120.242 428.987,122.167 426.174 C 124.092 423.362,125.667 420.848,125.667 420.589 C 125.667 419.797,123.161 418.000,122.057 418.000 C 121.923 418.000,117.776 423.887,112.843 431.083 M259.567 429.357 C 257.591 430.412,257.515 430.207,265.382 445.185 L 272.833 459.373 273.900 459.210 C 275.752 458.927,277.335 458.001,277.315 457.212 C 277.306 456.820,273.954 450.275,269.867 442.667 C 261.672 427.411,262.122 427.993,259.567 429.357 M249.412 434.158 C 248.813 434.422,248.236 434.866,248.130 435.143 C 247.986 435.517,253.127 451.971,255.551 458.900 C 255.667 459.230,254.953 458.737,253.964 457.804 C 252.975 456.871,250.371 454.546,248.175 452.637 C 245.980 450.728,241.798 447.027,238.881 444.412 C 235.965 441.797,233.192 439.560,232.718 439.441 C 230.764 438.951,226.667 440.538,226.667 441.786 C 226.667 441.970,228.852 448.787,231.524 456.934 L 236.381 471.747 238.052 471.586 C 239.112 471.484,239.966 471.182,240.389 470.759 L 241.056 470.092 237.058 458.296 C 234.860 451.808,232.951 446.200,232.816 445.833 C 232.664 445.420,233.191 445.757,234.202 446.719 C 237.411 449.772,254.186 464.435,255.167 465.044 C 257.036 466.203,260.900 465.561,261.442 464.000 C 261.671 463.342,260.758 460.074,257.114 448.500 L 252.496 433.833 251.498 433.755 C 250.949 433.712,250.010 433.893,249.412 434.158 M144.021 447.410 C 131.511 461.251,131.626 461.079,134.237 462.080 C 136.659 463.009,137.239 462.752,139.966 459.540 C 141.273 458.000,142.565 456.556,142.837 456.330 C 143.239 455.996,144.573 456.347,149.997 458.210 L 156.663 460.500 156.665 465.068 L 156.667 469.635 158.243 470.333 C 159.109 470.716,160.197 470.985,160.659 470.931 L 161.500 470.833 161.450 453.716 C 161.415 441.861,161.287 436.487,161.035 436.235 C 160.835 436.035,159.958 435.601,159.086 435.270 C 155.862 434.045,156.734 433.343,144.021 447.410 M157.077 448.543 L 156.913 456.587 151.468 454.768 L 146.024 452.950 151.595 446.683 C 154.659 443.235,157.183 440.434,157.203 440.458 C 157.224 440.481,157.167 444.120,157.077 448.543 M176.834 441.417 C 174.250 452.265,170.430 472.220,170.872 472.556 C 171.541 473.063,174.651 473.488,174.994 473.119 C 175.140 472.962,176.712 466.083,178.488 457.833 C 180.263 449.583,181.791 442.515,181.884 442.125 C 182.088 441.262,180.689 440.667,178.457 440.667 C 177.234 440.667,176.985 440.782,176.834 441.417 M217.230 441.567 C 216.778 441.684,216.669 441.946,216.795 442.612 C 217.389 445.729,218.416 464.409,218.060 465.599 C 216.029 472.375,205.830 473.307,202.681 467.004 C 201.826 465.293,201.717 464.487,200.846 453.427 C 199.926 441.746,200.164 442.529,197.595 442.762 C 194.987 442.998,195.140 442.265,195.789 451.420 C 196.640 463.442,196.957 466.193,197.726 468.247 C 201.692 478.848,220.467 477.118,223.216 465.898 C 223.734 463.782,222.221 442.833,221.460 441.603 C 221.287 441.321,218.276 441.296,217.230 441.567 " stroke="none" fill="#04447c" fill-rule="evenodd"></path><path id="path1" d="" stroke="none" fill="#08447c" fill-rule="evenodd"></path><path id="path2" d="" stroke="none" fill="#08447c" fill-rule="evenodd"></path><path id="path3" d="" stroke="none" fill="#08447c" fill-rule="evenodd"></path><path id="path4" d="" stroke="none" fill="#08447c" fill-rule="evenodd"></path></g></svg>